HIERARCHY
ROOT root
{
	OFFSET	0	13.1	24.9
	CHANNELS 6  Xposition Yposition Zposition Xrotation Yrotation Zrotation
	JOINT spine_1
	{
		OFFSET	0	9.99999	0
		CHANNELS 3  Xrotation Yrotation Zrotation
		JOINT spine_2
		{
			OFFSET	0	112	-10
			CHANNELS 3  Xrotation Yrotation Zrotation
			JOINT spine_3
			{
				OFFSET	0	206.5	19.3
				CHANNELS 3  Xrotation Yrotation Zrotation
				JOINT spine_4
				{
					OFFSET	0	110.4	14.6
					CHANNELS 3  Xrotation Yrotation Zrotation
					JOINT neck_1
					{
						OFFSET	0	71.8	-50.3
						CHANNELS 3  Xrotation Yrotation Zrotation
						JOINT neck_2
						{
							OFFSET	0	86.2	-25.8
							CHANNELS 3  Xrotation Yrotation Zrotation
							JOINT head_ee
							{
								OFFSET	0	179.8	-8.7
								CHANNELS 3  Xrotation Yrotation Zrotation
								End Site
								{
									OFFSET	1	0	0
								}
							}
						}
					}
					JOINT left_clavicle
					{
						OFFSET	-43.2	22.4	-70.8
						CHANNELS 3  Xrotation Yrotation Zrotation
						JOINT left_shoulder
						{
							OFFSET	-93.9	-5.79999	48.7
							CHANNELS 3  Xrotation Yrotation Zrotation
							JOINT left_elbow
							{
								OFFSET	-291.4	-30.8	15.2
								CHANNELS 3  Xrotation Yrotation Zrotation
								JOINT left_lowarm_twist
								{
									OFFSET	-110.7	-3.89999	13.6
									CHANNELS 3  Xrotation Yrotation Zrotation
									JOINT left_hand
									{
										OFFSET	-110.7	-3.89999	13.6
										CHANNELS 3  Xrotation Yrotation Zrotation
										JOINT left_ee
										{
											OFFSET	-80.8	-5.10001	12.1
											CHANNELS 3  Xrotation Yrotation Zrotation
											End Site
											{
												OFFSET	1	0	0
											}
										}
									}
								}
							}
						}
					}
					JOINT right_clavicle
					{
						OFFSET	43.2	22.4	-70.8
						CHANNELS 3  Xrotation Yrotation Zrotation
						JOINT right_shoulder
						{
							OFFSET	93.9	-5.79999	48.7
							CHANNELS 3  Xrotation Yrotation Zrotation
							JOINT right_elbow
							{
								OFFSET	291.4	-30.8	15.2
								CHANNELS 3  Xrotation Yrotation Zrotation
								JOINT right_lowarm_twist
								{
									OFFSET	110.7	-3.89999	13.6
									CHANNELS 3  Xrotation Yrotation Zrotation
									JOINT right_hand
									{
										OFFSET	110.7	-3.89999	13.6
										CHANNELS 3  Xrotation Yrotation Zrotation
										JOINT right_ee
										{
											OFFSET	80.8	-5.10001	12.1
											CHANNELS 3  Xrotation Yrotation Zrotation
											End Site
											{
												OFFSET	1	0	0
											}
										}
									}
								}
							}
						}
					}
				}
			}
		}
	}
	JOINT left_hip
	{
		OFFSET	-82.8	-127.5	0.300001
		CHANNELS 3  Xrotation Yrotation Zrotation
		JOINT left_knee
		{
			OFFSET	-28.2	-396.7	2.2
			CHANNELS 3  Xrotation Yrotation Zrotation
			JOINT left_ankle
			{
				OFFSET	-11.7	-411.3	35.4
				CHANNELS 3  Xrotation Yrotation Zrotation
				JOINT left_toes
				{
					OFFSET	0	-60	-88.6
					CHANNELS 3  Xrotation Yrotation Zrotation
					JOINT left_foot_ee
					{
						OFFSET	-22.5	-16.5	-42.2
						CHANNELS 3  Xrotation Yrotation Zrotation
						End Site
						{
							OFFSET	1	0	0
						}
					}
				}
			}
		}
	}
	JOINT right_hip
	{
		OFFSET	82.8	-127.5	0.300001
		CHANNELS 3  Xrotation Yrotation Zrotation
		JOINT right_knee
		{
			OFFSET	28.2	-396.7	2.2
			CHANNELS 3  Xrotation Yrotation Zrotation
			JOINT right_ankle
			{
				OFFSET	11.7	-411.3	35.4
				CHANNELS 3  Xrotation Yrotation Zrotation
				JOINT right_toes
				{
					OFFSET	0	-60	-88.6
					CHANNELS 3  Xrotation Yrotation Zrotation
					JOINT right_foot_ee
					{
						OFFSET	22.5	-16.5	-42.2
						CHANNELS 3  Xrotation Yrotation Zrotation
						End Site
						{
							OFFSET	1	0	0
						}
					}
				}
			}
		}
	}
}
MOTION
Frames: 6
Frame Time: 0.02
3711.72 692.147 -392.666 -14.2229 52.4177 9.20086 -0.562882 0.736433 1.07845 -0.562482 0.666321 1.12312 -0.548732 0.403624 1.24195 -0.550391 0.594688 1.16264 11.7059 3.51938 -0.464088 11.776 6.10216 -0.599361 -0.0 0.0 -0.0 -0.436486 0.563011 -0.770578 18.0108 -13.962 78.998 1.54284 -37.3872 0.522057 20.3417 0.262718 -2.57156 5.00774 -11.7034 30.0669 -0.0 0.0 -0.0 8.39448 22.7169 -15.6124 -56.104 70.8695 -45.9406 0.548034 15.1887 -0.073069 9.35821 -0.234526 1.17109 2.90332 24.9914 -8.27305 0.0 0.0 0.0 -5.23361 18.3223 9.6746 -15.9244 0.321905 2.41471 31.9531 -2.19502 -4.1344 17.0219 -0.0 -0.0 -0.0 0.0 -0.0 43.381 23.99 -6.03924 -4.40141 -0.156031 -0.657298 -18.1305 2.42015 -2.7758 -10.9807 0.0 0.0 0.0 0.0 0.0 
3691.13 683.625 -408.591 -15.1912 53.0445 10.4741 -0.270188 0.68 0.906262 -0.269945 0.620957 0.947692 -0.259218 0.403199 1.05883 -0.260337 0.565354 0.981875 11.9211 3.94776 -1.3252 12.0455 7.57985 -1.68943 -0.0 0.0 -0.0 -0.617483 1.67185 -0.973579 16.0239 -14.9602 78.7282 1.50809 -36.7597 0.501112 20.4293 0.261863 -2.58272 5.08963 -12.8302 30.0828 -0.0 0.0 -0.0 8.84792 25.7532 -16.3246 -59.526 69.7618 -41.3146 0.549444 15.226 -0.073439 9.52909 -0.23702 1.19278 2.88282 24.909 -8.18135 0.0 0.0 0.0 -5.26759 17.93 10.3764 -18.6554 0.309216 2.83351 31.668 -3.61967 -4.12077 17.6313 -0.0 -0.0 -0.0 0.0 -0.0 43.2603 24.0214 -6.49971 -4.27462 -0.152245 -0.638207 -19.5338 2.00744 -2.98825 -10.8049 0.0 0.0 0.0 0.0 0.0 
3677.84 688.324 -417.397 -16.1401 52.7915 11.5789 -0.0594718 0.672761 0.954585 -0.0591723 0.610658 0.995456 -0.0481004 0.386958 1.10185 -0.0493633 0.55611 1.02692 11.294 4.6708 -1.52378 11.4625 8.9687 -1.91318 -0.0 0.0 -0.0 -0.787314 3.0117 -1.11688 14.5825 -15.8466 78.5177 1.45924 -35.8596 0.472181 20.3866 0.262282 -2.57728 5.08871 -14.2709 29.2716 -0.0 0.0 -0.0 9.14866 27.7438 -16.7753 -62.1553 68.7664 -38.364 0.542674 15.047 -0.0716713 8.74563 -0.225056 1.09342 2.8073 25.1139 -7.58506 0.0 0.0 0.0 -2.85997 17.6664 9.29551 -19.829 0.297635 3.01319 28.8928 -4.03727 -3.82984 17.5579 -0.0 -0.0 -0.0 0.0 -0.0 42.2127 24.2284 -6.38145 -5.33922 -0.182717 -0.798746 -20.4277 3.37243 -3.14086 -10.4172 0.0 0.0 0.0 0.0 0.0 
3648.77 698.983 -423.992 -17.7777 53.0105 12.8619 0.092958 0.569067 0.775711 0.0931432 0.518555 0.810348 0.10077 0.33829 0.900619 0.0999552 0.476276 0.835896 10.5931 5.3157 -1.7712 10.8091 10.2929 -2.18269 -0.0 0.0 -0.0 -0.852715 3.41858 -1.1844 14.2147 -16.4292 80.2174 1.42496 -35.2156 0.45226 20.3572 0.262568 -2.57354 5.08839 -15.2478 28.7158 -0.0 0.0 -0.0 9.32502 28.0395 -17.1326 -63.6829 68.0791 -36.6754 0.533053 14.792 -0.0691941 8.07439 -0.213725 1.00842 2.73657 25.0654 -7.14928 0.0 0.0 0.0 -1.6703 17.3782 8.9882 -20.7366 0.286156 3.15198 26.9322 -4.68763 -3.61934 17.5068 -0.0 -0.0 -0.0 0.0 -0.0 41.6359 24.3422 -6.39862 -6.06725 -0.201834 -0.908836 -21.0318 4.33271 -3.24622 -10.1294 0.0 0.0 0.0 0.0 0.0 
3629.14 704.719 -435.521 -18.1295 53.238 13.626 0.273813 0.481375 0.45231 0.273813 0.451618 0.482024 0.277719 0.342979 0.564509 0.27753 0.427828 0.503259 10.1309 5.76292 -1.96231 10.3838 11.2337 -2.38864 -0.0 0.0 -0.0 -0.932266 3.85174 -1.27355 13.413 -16.8672 81.2818 1.38943 -34.537 0.43194 20.329 0.262841 -2.56995 5.08207 -15.9012 28.2946 -0.0 0.0 -0.0 9.47297 28.3997 -17.4189 -64.7574 67.6639 -35.1054 0.527448 14.6432 -0.0677703 7.58966 -0.204925 0.947129 2.6875 25.037 -6.84436 0.0 0.0 0.0 -0.838775 17.144 8.78118 -21.9013 0.268204 3.3298 25.5508 -5.13597 -3.46639 17.4692 -0.0 -0.0 -0.0 0.0 -0.0 41.1691 24.4344 -6.34996 -6.57614 -0.214365 -0.985926 -21.2897 5.06371 -3.29616 -9.87642 0.0 0.0 0.0 0.0 0.0 
3609.64 708.537 -455.549 -16.7944 52.5545 12.824 0.336757 0.445456 0.254721 0.336691 0.428345 0.28255 0.338838 0.361559 0.364128 0.338893 0.414528 0.302457 9.65156 6.23122 -1.31788 9.88908 11.4536 -1.56594 -0.0 0.0 -0.0 -1.0402 5.52365 -1.24041 10.6554 -18.0421 81.6522 1.18943 -30.5058 0.324352 20.7247 0.258854 -2.62034 4.95954 -18.1012 26.1168 -0.0 0.0 -0.0 9.94826 27.4034 -18.5929 -66.0722 68.2902 -33.8703 0.531849 14.7601 -0.0688871 6.1191 -0.175055 0.761658 2.56049 24.1304 -6.46815 0.0 0.0 0.0 -0.190163 15.4796 8.11928 -22.7137 0.253545 3.4536 22.9778 -4.1909 -3.151 17.8189 -0.0 -0.0 -0.0 0.0 -0.0 39.5241 24.3577 -6.43318 -6.19842 -0.20513 -0.928696 -17.414 7.18679 -2.71903 -10.2388 0.0 0.0 0.0 0.0 0.0 
